<svg xml:space="preserve" style="enable-background:new 0 0 4000 4000;" viewBox="0 0 4000 4000" y="0px" x="0px" xmlns:xlink="http://www.w3.org/1999/xlink" xmlns="http://www.w3.org/2000/svg" id="Layer_1" version="1.1">
<style type="text/css">
	.st0{fill:#DB6767;}
	.st1{fill:url(#SVGID_1_);}
	.st2{fill:url(#SVGID_2_);}
	.st3{fill:#FFFFFF;stroke:#1A1A1A;stroke-width:2;stroke-linecap:round;stroke-linejoin:round;stroke-miterlimit:10;}
	.st4{fill:url(#SVGID_3_);}
	.st5{fill:#D9D9D9;}
	.st6{fill:none;stroke:#203560;stroke-width:3;stroke-linecap:round;stroke-linejoin:round;stroke-miterlimit:10;}
	.st7{fill:#572658;}
	.st8{fill:#DBD2DB;}
	.st9{fill:none;stroke:#1A1A1A;stroke-width:3;stroke-linecap:round;stroke-linejoin:round;stroke-miterlimit:10;}
	.st10{fill:#102140;}
	.st11{fill:none;stroke:#D18B0D;stroke-width:2;stroke-linecap:round;stroke-linejoin:round;stroke-miterlimit:10;}
	.st12{fill:#D1334A;}
	.st13{fill:#FC9590;}
	.st14{fill:#EB485C;}
	.st15{fill:#EF5164;}
	.st16{fill:#FFFFFF;}
	.st17{fill:#616E85;}
	.st18{fill:#5C6E8F;}
	.st19{fill:url(#SVGID_4_);}
	.st20{clip-path:url(#SVGID_7_);}
	.st21{fill:none;stroke:#1A1A1A;stroke-linecap:round;stroke-linejoin:round;stroke-miterlimit:10;stroke-dasharray:12;}
	.st22{fill:#FFDE70;}
	.st23{fill:url(#SVGID_8_);}
	.st24{fill:url(#SVGID_9_);}
	.st25{fill:url(#SVGID_10_);}
</style>
<path d="M1950.1,1954.7c0,0,32.7,82.2,99.8,90.6c-1.5-37.4-1.5-37.4-1.5-37.4S1969,1985.5,1950.1,1954.7z" class="st0"></path>
<g>
	<linearGradient y2="2188.7415" x2="3931.6292" y1="2188.7415" x1="180.0353" gradientUnits="userSpaceOnUse" id="SVGID_1_">
		<stop style="stop-color:#68B2FC" offset="0"></stop>
		<stop style="stop-color:#529BF7" offset="1"></stop>
	</linearGradient>
	<path d="M348.3,1867.7c-32.9,55.9-287.6,504.4-99.9,921c203.2,450.8,852.4,704,1497.8,454.9
		c182.9,93.8,554.4,251.5,1031.8,221.9c256.3-15.9,603-37.3,865.4-299.6c379.3-379.1,280-958.8,266.3-1031.9
		c-139.7-746.5-925.8-1076-1009.7-1109.6C2117.8,710.6,1100.4,1046.6,348.3,1867.7z" class="st1"></path>
	<linearGradient y2="1889.9408" x2="3613.8845" y1="1889.9408" x1="228.3598" gradientUnits="userSpaceOnUse" id="SVGID_2_">
		<stop style="stop-color:#4085F0" offset="0"></stop>
		<stop style="stop-color:#275DC9" offset="1"></stop>
	</linearGradient>
	<path d="M697.8,2810.9c-31.5-17.2-424.4-240.2-466-704.6c-37.9-423.6,247.8-699.6,282.9-732.3
		c-79.2-224.7-11.7-473.9,166.4-621.4c160.7-133.1,386.8-163,582.5-77.7c24.6-40.7,159.6-254.9,438.3-321.8
		c302.9-72.7,536.3,86.2,571.4,111c246.5-204.7,599.3-216.2,848.8-33.3c269.1,197.3,356.2,575.4,194.2,882.1
		c30.8,41,483.1,665.6,210.8,1348.2c-178.7,448-558.8,643.6-665.7,693.5c-513.4,239.7-1157.8,123.6-1658.7-282.9
		C1034.4,2984.7,866.1,2897.8,697.8,2810.9z" class="st2"></path>
	<polygon points="2997,3281 2861.4,3354.6 1628,2203.6 1628,2109.3" class="st3"></polygon>
	<linearGradient y2="1511.2338" x2="3399.9084" y1="1511.2338" x1="1857.6759" gradientUnits="userSpaceOnUse" id="SVGID_3_">
		<stop style="stop-color:#68B2FC" offset="0"></stop>
		<stop style="stop-color:#EBF0F7" offset="1"></stop>
	</linearGradient>
	<path d="M1875.7,1641.2c0,0,37.2-176.7,327.4-117.5c290.2,59.2,697-170.1,796.9-473.4c99.9-303.3,229.3-51.8,266.3,0
		s131.2-48.3,131.2-48.3s24.1,144.5-81.3,310.9c-294,366.2-908,716.2-908,716.2l-550.6,90.2L1875.7,1641.2z" class="st4"></path>
	<polygon points="3122.1,430.8 1860,780.3 1827.7,2163.4 1921.1,2175.9 1943.2,799.7 3165,465" class="st5"></polygon>
	<g>
		<line y2="2168.7" x2="2221.6" y1="699.7" x1="2253.7" class="st6"></line>
		<line y2="2084.1" x2="2656.7" y1="583.3" x1="2656.7" class="st6"></line>
		<line y2="1957.6" x2="3099.9" y1="465" x1="3099.9" class="st6"></line>
	</g>
	<polygon points="2997,3281 2861.4,3354.6 1628,2203.6 1628,2109.3" class="st7"></polygon>
	<path d="M3535.1,2640.3c-0.9,2.3-1.7,4.5-2.5,6.7c-1.8,4.7-3.7,9.4-5.5,14.1c-178.7,448-558.8,643.6-665.7,693.5
		L2997,3281L1628,2109.3l920.9-144.3L3535.1,2640.3z" class="st8"></path>
	<path d="M2806.5,2843.8c0,0-2.5-112.7,125.1-38.6c127.6,74.1,262.6,135.1,264.4,29.7c1.8-105.4,38.8-149.2,66.6-130.1" class="st9"></path>
	<polygon points="2237.7,2327.7 2725.6,2706.1 2521.1,2765.7 2055.8,2374.3" class="st10"></polygon>
	<g>
		<line y2="2699.5" x2="2651.5" y1="2357.8" x1="2221.6" class="st11"></line>
		<line y2="2717.6" x2="2605.6" y1="2375.8" x1="2175.8" class="st11"></line>
		<line y2="2735.6" x2="2559.8" y1="2393.9" x1="2129.9" class="st11"></line>
		<g>
			<line y2="2722.1" x2="2509.1" y1="2672.2" x1="2635.8" class="st11"></line>
			<line y2="2685.1" x2="2463.4" y1="2635.1" x1="2590.1" class="st11"></line>
			<line y2="2648" x2="2417.7" y1="2598.1" x1="2544.4" class="st11"></line>
			<line y2="2611" x2="2372" y1="2561" x1="2498.7" class="st11"></line>
			<line y2="2573.9" x2="2326.3" y1="2524" x1="2453" class="st11"></line>
			<line y2="2536.9" x2="2280.6" y1="2487" x1="2407.3" class="st11"></line>
			<line y2="2499.9" x2="2234.9" y1="2449.9" x1="2361.6" class="st11"></line>
			<line y2="2462.8" x2="2189.2" y1="2412.9" x1="2315.9" class="st11"></line>
			<line y2="2425.8" x2="2143.5" y1="2375.8" x1="2270.2" class="st11"></line>
		</g>
	</g>
	<path d="M1607.2,2416.3c7.8-13,10.4-25.9,15.6-38.9c11.7-29.1,8.8-59.7,7.7-90.7c-61-79.3-98.9-315-127-420.3
		c-33.3-124.5-215.7-237.7-215.7-237.7s136.8,410.3,134.1,820.9c24.2,28.8,54.8,46.8,88.4,57.1
		C1555.4,2493.2,1585.7,2457,1607.2,2416.3z" class="st12"></path>
	<path d="M2278.9,2283.2c-45.6-57.9-111-75.2-239.2-16c-128.2,59.2-290.8,60.5-373.4,45.7
		c-12.8-2.3-24.7-11.6-35.9-26.1c1.1,31,4,61.5-7.7,90.7c-5.2,13-7.8,25.9-15.6,38.9c-4.7,8.9-9.9,17.5-15.5,25.8
		c45.7,9.5,96.3-0.6,143.1-8.1c119.8-21.8,223.2-103.4,351.1-76.2c2.7,2.7,8.2,5.4,8.2,10.9c46.3,2.7,59.9,46.3,95.3,68
		c2.4,1.4,4.9,2.5,7.5,3.4c0.1-9.5-3.6-19.8-11.8-26.3c-24.7-19.7-19.7-71.5-19.7-71.5s50.5,54.2,74,77.7
		c23.4,23.4,92.5,22.2,98.4,0C2343.8,2397.9,2324.5,2341.1,2278.9,2283.2z" class="st13"></path>
	<path d="M2094.1,2368.8c0-5.4-5.4-8.2-8.2-10.9c-127.9-27.2-231.4,54.4-351.1,76.2c-46.8,7.5-97.4,17.5-143.1,8.1
		c-20,29.6-46.3,54-81.6,64.6c103,31.5,234.3-9.2,296.5-32.4c82.6-30.8,223.1-91.2,261.4-87.5c38.2,3.7,49.3,27.1,87.5,64
		c25.6,24.6,41.2,8.6,41.3-10.5c-2.6-0.9-5.1-2-7.5-3.4C2154,2415,2140.4,2371.5,2094.1,2368.8z" class="st0"></path>
	<g>
		<path d="M1451.2,1410.8l-68.6,243.6l-210.5-173.2c0,0,68.4-89.7,64.7-146.1c-3.7-56.4-33.3-302.4,93.4-380
			c126.7-77.7,259.8-29.6,315.3,25c55.5,54.6,8.3,269.1-17.6,330.1c-25.9,61-51.8,127.6-137.8,111L1451.2,1410.8z" class="st13"></path>
		<path d="M1360.4,1352.4c0,0,66.1,51.9,90.8,58.4c-15.6,50.1-17.5,60.7-17.5,60.7S1362.9,1411.5,1360.4,1352.4z" class="st0"></path>
		<path d="M1325.6,1240.8c0,0-49.9-49-15.7-88.8c34.2-39.8,77.7-21.3,99.9,21.3c18.5,6.5,26.8-25,24-52.7
			c-2.8-27.7-12-125.8,31.4-139.6c43.5-13.9,83.2,5.5,129.4,52.7c46.2,47.2,132.2,50.9,157.2-25.9c25-76.7-16.6-111.9-16.6-111.9
			s-1.8,21.4-47.2,18.6c-45.3-2.8-70.3-48.1-116.5-46.3c0,0-90.6-104.5-231.1,5.5c-83.2,2.8-180.3,118.4-168.3,210.8
			c12,92.5,24,208.1,79.5,221.9C1306.2,1297.2,1325.6,1240.8,1325.6,1240.8z" class="st10"></path>
	</g>
	<path d="M1114.3,3076.4c-40.8-65.3-92.5-119.8-111.6-190.5c-5.4-24.5-10.9-51.7-13.6-78.9c0-10.9-13.6-19.1-19.1-29.9
		c-13.6-49-21.8-98-38.1-147c-16.3-51.7-19.1-103.4-21.8-155.1c-5.4-138.8-5.4-280.4,0-419.2c0-19.1,10.9-35.4,13.6-54.4
		c2.7-16.3-2.7-29.9,0-46.3c5.4-16.3,16.3-29.9,19.1-46.3c5.4-24.5,0-46.3,5.4-70.8c0-2.7,10.9-5.4,10.9-8.2
		c5.4-49,27.2-87.1,57.2-125.2c2.7-2.7,0-8.2,0-13.6c10.9-29.9,35.4-46.3,43.5-76.2c8.2-28.8,14.9-57.7,27.1-85.3
		c-35.9-2.8-71,1.3-103.4,13.7C731.1,1690.2,575.8,2453,584.1,2650c8.3,197,288.5,496.5,549.2,518.8c28.4,2.4,56.7,3.3,84.5,2.9
		c0,0,0,0-0.1-0.1C1168.7,3152.7,1138.8,3114.5,1114.3,3076.4z" class="st14"></path>
	<path d="M1549.1,2286.9c-8.6-77.7-45.6-299.6-112.2-482.1c-53.1-145.7-207.8-264.4-349.9-275.3
		c-12.2,27.7-18.9,56.5-27.1,85.3c-8.2,29.9-32.7,46.3-43.5,76.2c0,5.4,2.7,10.9,0,13.6c-29.9,38.1-51.7,76.2-57.2,125.2
		c0,2.7-10.9,5.4-10.9,8.2c-5.4,24.5,0,46.3-5.4,70.8c-2.7,16.3-13.6,29.9-19.1,46.3c-2.7,16.3,2.7,29.9,0,46.3
		c-2.7,19.1-13.6,35.4-13.6,54.4c-5.4,138.8-5.4,280.4,0,419.2c2.7,51.7,5.4,103.4,21.8,155.1c16.3,49,24.5,98,38.1,147
		c5.4,10.9,19.1,19.1,19.1,29.9c2.7,27.2,8.2,54.4,13.6,78.9c19.1,70.8,70.8,125.2,111.6,190.5c24.5,38.1,54.4,76.2,103.4,95.3
		c0,0,0,0,0.1,0.1c227.2-3,423.1-89,423.1-89C1646.9,3041.3,1557.7,2364.6,1549.1,2286.9z" class="st15"></path>
	<path d="M989.1,1547.8c0,0,77.7-90.6,196.9-95.2c150.7,125.8,271.8,235.8,272.8,252.4c0.9,16.6-19.4,128.5-31.4,124.8
		C1386.6,1759.5,1217.4,1508.9,989.1,1547.8z" class="st16"></path>
	<g>
		<path d="M3187.4,2633.3l-482-342.7l-137.6,29.3c64.9,14.1,125.6,45.5,171.4,89.7c102.3,99.6,197,201.8,327.9,253
			l57.8-14L3187.4,2633.3z" class="st17"></path>
		<path d="M2567.8,2319.9l-142.2,30.3l60.7,46.7l401.6,309.1l179.3-43.5c-130.9-51.2-225.6-153.3-327.9-253
			C2693.4,2365.5,2632.7,2334,2567.8,2319.9z" class="st16"></path>
		<polygon points="2887.9,2706.1 2887.9,2765.7 2425.6,2409.9 2425.6,2350.3 2486.3,2397" class="st18"></polygon>
		<polygon points="3124.9,2648.5 2887.9,2706.1 2887.9,2765.7 3187.4,2693 3187.4,2633.3" class="st10"></polygon>
		<path d="M3906,1290.9l-191.4,1466.7c-9.4,72.1-71.8,104.1-133.9,122.3c-27.7,8.1-77.4,9.3-108-3.4
			c77.1,17.9,159.6-33.1,170.8-118.8l191.4-1466.7c9.6-74-39.6-139.3-107.5-155l23.7-2.7C3841.7,1123,3917.8,1200.5,3906,1290.9z" class="st17"></path>
		<path d="M3834.9,1290.9l-191.4,1466.7c-11.2,85.7-93.7,136.7-170.8,118.8c-16.4-3.8-32.6-10.8-47.8-21.2
			l-1063.1-728.8c-40.1-27.5-63.1-73.7-60.9-122.3l27.7-600.1c3.2-68.9,56-125.3,124.5-133L3680,1133.2c16.4-1.8,32.4-0.8,47.4,2.7
			C3795.3,1151.5,3844.6,1216.9,3834.9,1290.9z" class="st16"></path>
		<path d="M2372,1983.3l24.9-539c2.6-55.8,45.3-101.5,100.9-107.8l1135-127.6c73.4-8.2,135,54.5,125.4,127.7
			l-175.1,1341.7c-11,84.2-107,127.1-177,79.1l-984.9-675.1C2388.9,2060.1,2370.2,2022.6,2372,1983.3z" class="st3"></path>
		<linearGradient y2="1992.8585" x2="3759.2598" y1="1992.8585" x1="2371.9229" gradientUnits="userSpaceOnUse" id="SVGID_4_">
			<stop style="stop-color:#4085F0" offset="0"></stop>
			<stop style="stop-color:#275DC9" offset="1"></stop>
		</linearGradient>
		<path d="M2372,1983.3l24.9-539c2.6-55.8,45.3-101.5,100.9-107.8l1135-127.6c73.4-8.2,135,54.5,125.4,127.7
			l-175.1,1341.7c-11,84.2-107,127.1-177,79.1l-984.9-675.1C2388.9,2060.1,2370.2,2022.6,2372,1983.3z" class="st19"></path>
		<g>
			<defs>
				<path d="M3659.3,1533.9l-148.1,1135.1c-3.1,23.6-23,35.9-41,35.9c-8.1,0-15.8-2.5-22.9-7.3l-984.8-675.1
					c-11.8-8.1-18.5-21.5-17.8-35.8l9.2-199.8c45.6-61.3,86.4-77,115.4-80c75.1-7.9,102.7,65.9,229.3,96.1
					c51,12.2,129,30.9,194.2-7.4c68.3-40.1,67.4-110.3,135-125.7c47.3-10.8,89.9,14,94.3,16.6c50.8,30.5,40.5,75.1,81.3,101.7
					c64.7,42.2,169.2-18.3,175.7-22.2c72.3-43,45.5-118.6,118.4-188.7C3617.6,1557.9,3639.2,1544,3659.3,1533.9z" id="SVGID_5_"></path>
			</defs>
			<linearGradient y2="2119.3523" x2="3659.3149" y1="2119.3523" x1="2444.5525" gradientUnits="userSpaceOnUse" id="SVGID_6_">
				<stop style="stop-color:#68B2FC" offset="0"></stop>
				<stop style="stop-color:#529BF7" offset="1"></stop>
			</linearGradient>
			<use style="overflow:visible;fill:url(#SVGID_6_);" xlink:href="#SVGID_5_"></use>
			<clipPath id="SVGID_7_">
				<use style="overflow:visible;" xlink:href="#SVGID_5_"></use>
			</clipPath>
			<g class="st20">
				<line y2="2062" x2="2497.1" y1="1654.1" x1="2522" class="st21"></line>
				<line y2="2117.9" x2="2575.2" y1="1641.1" x1="2610.5" class="st21"></line>
				<line y2="2173.7" x2="2653.4" y1="1628.1" x1="2698.9" class="st21"></line>
				<line y2="2229.5" x2="2731.5" y1="1615" x1="2787.3" class="st21"></line>
				<line y2="2285.3" x2="2809.7" y1="1602" x1="2875.7" class="st21"></line>
				<line y2="2341.2" x2="2887.8" y1="1589" x1="2964.1" class="st21"></line>
				<line y2="2397" x2="2966" y1="1576" x1="3052.5" class="st21"></line>
				<line y2="2452.8" x2="3044.1" y1="1562.9" x1="3140.9" class="st21"></line>
				<line y2="2508.6" x2="3122.3" y1="1549.9" x1="3229.4" class="st21"></line>
				<line y2="2564.5" x2="3200.4" y1="1536.9" x1="3317.8" class="st21"></line>
				<line y2="2620.3" x2="3278.6" y1="1523.9" x1="3406.2" class="st21"></line>
				<line y2="2676.1" x2="3356.7" y1="1510.8" x1="3494.6" class="st21"></line>
				<line y2="2731.9" x2="3434.9" y1="1497.8" x1="3583" class="st21"></line>
			</g>
		</g>
		<path d="M3686.3,1327.3l-27,206.6c-20.1,10.1-41.7,24-62,43.5c-72.9,70.1-46.1,145.6-118.4,188.7
			c-6.5,3.9-111,64.4-175.7,22.2c-40.8-26.6-30.6-71.2-81.3-101.7c-4.4-2.6-47-27.4-94.3-16.6c-67.6,15.4-66.7,85.7-135,125.7
			c-65.2,38.3-143.2,19.6-194.2,7.4c-126.6-30.3-154.2-104.1-229.3-96.1c-29,3-69.7,18.8-115.4,80l15.7-339.2
			c0.9-20.3,16.3-36.7,36.4-38.9l1135-127.5c1.6-0.2,3.3-0.3,4.9-0.3c11.6,0,22.8,5.1,30.6,14
			C3681,1300.1,3688.3,1311.2,3686.3,1327.3z" class="st22"></path>
		<polygon points="2524.8,1452.5 2794.8,1422 2794.8,1468.3 2524.8,1479.4" class="st16"></polygon>
	</g>
	<ellipse ry="63.5" rx="169.6" cy="2099.9" cx="1968.7" class="st16"></ellipse>
	<path d="M1929,2049.2c-58.5,6.4-101.2,26.7-101.2,50.7c0,29.2,63.1,52.8,141,52.8c53.4,0,99.9-11.1,123.8-27.6
		c-35.8-0.7-71.9-7.9-104.6-17.7C1961.3,2097.8,1928.2,2081.6,1929,2049.2z" class="st10"></path>
	<path d="M2109.7,2099.9c0-29.2-63.1-52.8-141-52.8c-13.8,0-27.1,0.8-39.8,2.1c-0.8,32.3,32.3,48.5,59,58.2
		c32.7,9.8,68.8,17,104.6,17.7C2103.5,2117.7,2109.7,2109.1,2109.7,2099.9z" class="st16"></path>
	<path d="M1976.5,2119.2h25.3c112.8-3.7,87.8-174.8,87.8-174.8l-113.2-5.4v-0.2l-1.7,0.1l-1.7-0.1v0.2l-67.3,3.2
		c-5.2,65.2-6.3,133.7,52.4,176.9h14.9H1976.5z" class="st16"></path>
	<path d="M1905.9,1942.3l-45.9,2.2c0,0-25,171.1,87.8,174.8h10.4C1899.6,2076,1900.7,2007.5,1905.9,1942.3z" class="st5"></path>
	<ellipse ry="29.1" rx="114.9" cy="1942.8" cx="1974.9" class="st10"></ellipse>
	<path d="M1283,2156.5c13.6,46.3,43.5,84.4,68,125.2c27.2,46.3,51.7,89.8,84.4,130.6c5.4,10.9,13.6,19.1,21.8,27.2
		c2.7,5.4,0,13.6,2.7,19.1c69.8,79.1,103.8,184,175.2,255.4c4.9-19.6,8.5-39.6,10.6-59.9c-129.4-183-263.7-432.7-367.7-605.9
		C1277.3,2084.3,1271.7,2120.4,1283,2156.5z" class="st14"></path>
	<path d="M1459.9,2458.6c-2.7-5.4,0-13.6-2.7-19.1c-8.2-8.2-16.3-16.3-21.8-27.2c-32.7-40.8-57.2-84.4-84.4-130.6
		c-24.5-40.8-54.4-78.9-68-125.2c-11.3-36.1-5.7-72.2-5.1-108.3c-6.2-10.4-12.4-20.6-18.4-30.4c0,0-5.1-18.3-12.5-60.1
		c0,0-196-254.7-321.7-166.6c-120.3,84.4-86.1,228.4-86.5,257.9c10.1,30.9,25.3,59.3,35.9,91.2c35.4,100.7,65.3,204.1,130.6,299.4
		c5.4,10.9,19.1,13.6,24.5,24.5c2.7,8.2,5.4,16.3,10.9,24.5c43.5,46.3,81.7,92.5,122.5,138.8c111.5,117.4,250.6,191.2,398.2,237.2
		c10.9-15,21-30.6,30.2-46.2c20.1-33.1,34.3-68.1,43.4-104.5C1563.8,2642.6,1529.7,2537.7,1459.9,2458.6z" class="st15"></path>
	<path d="M1163.3,2627.3c-40.8-46.3-78.9-92.5-122.5-138.8c-5.4-8.2-8.2-16.3-10.9-24.5c-5.4-10.9-19.1-13.6-24.5-24.5
		c-65.3-95.3-95.3-198.7-130.6-299.4c-10.6-31.8-25.8-60.3-35.9-91.2c-1.4,113.2,32.8,281.1,183.5,484.5
		c122.5,165.4,243,326.6,380.7,445.3c65.1-10.8,117.9-58.6,158.5-114.2C1413.9,2818.5,1274.7,2744.8,1163.3,2627.3z" class="st12"></path>
	<g>
		<path d="M2615.4,2799.8c0,0,91.9-72.1,191.1,0c37.3,28.7,40.1,69.4,40.1,69.4s-110,64.7-172.9,48.1
			C2610.8,2900.6,2615.4,2799.8,2615.4,2799.8z" class="st10"></path>
		<path d="M2781.8,2809c0,0,28.5-0.9,40.5,5.7c-10.4-16.6-19-19.1-19-19.1l-36.9,0.4L2781.8,2809z" class="st16"></path>
	</g>
	<path d="M2749.8,2783.8c-1.7-14-14.4-33.5-30.8-50.6c-4.5,43.4-19.9,85.8-56,112c-8.2,5.4-19.1,8.2-32.7,13.6
		c-13.6,5.4-16.3,24.5-29.9,27.2c-76.2,5.4-149.7,8.2-217.7,43.5c-16.3,5.4-38.1,0-54.4,8.2c-57.2,27.2-117,49-179.6,62.6
		c-8.2,2.7-21.8,5.4-27.2,8.2c-119.8,8.2-250.4,10.9-359.3-35.4c-21.8-8.2-46.3-13.6-68-21.8c-2.7-2.7-2.7-10.9-5.4-10.9
		c-53.4-4.1-99-28.4-143.9-54c-38,46-85.2,83.1-141.6,92.5c183.4,158.1,397.3,240.6,687.2,156.6
		c324.5-116.5,363.4-185.9,399.4-185.9c33.8,0,155.4-10.6,184.2-44.6c1.9-2.3,3.4-4.6,4.5-7.1
		C2678.3,2897.8,2752.6,2806.9,2749.8,2783.8z" class="st0"></path>
	<path d="M1694,2951.2c21.8,8.2,46.3,13.6,68,21.8c108.9,46.3,239.5,43.5,359.3,35.4c5.4-2.7,19.1-5.4,27.2-8.2
		c62.6-13.6,122.5-35.4,179.6-62.6c16.3-8.2,38.1-2.7,54.4-8.2c68-35.4,141.5-38.1,217.7-43.5c13.6-2.7,16.3-21.8,29.9-27.2
		c13.6-5.4,24.5-8.2,32.7-13.6c36.2-26.1,51.5-68.5,56-112c-10.7-11.2-22.9-21.4-34.6-28.3c-29.6-17.6-127.9-14.5-141.8-5.3
		c-13.9,9.2-69.7,78.1-82.6,91.9c0,0-512.4,141.5-677.9,19.4c-38.7-28.5-85.7-85-136.5-156.8c-6.1,57.9-23.1,113.5-54,164.4
		c-13.7,23.3-29.4,46.5-47,67.9c44.9,25.7,90.5,49.9,143.9,54C1691.3,2940.4,1691.3,2948.5,1694,2951.2z" class="st13"></path>
	<linearGradient y2="620.6874" x2="3535.1399" y1="620.6874" x1="3377.1763" gradientUnits="userSpaceOnUse" id="SVGID_8_">
		<stop style="stop-color:#4085F0" offset="0"></stop>
		<stop style="stop-color:#275DC9" offset="1"></stop>
	</linearGradient>
	<ellipse ry="79" rx="79" cy="620.7" cx="3456.2" class="st23"></ellipse>
	<linearGradient y2="1333.7151" x2="388.3486" y1="1333.7151" x1="68.3709" gradientUnits="userSpaceOnUse" id="SVGID_9_">
		<stop style="stop-color:#68B2FC" offset="0"></stop>
		<stop style="stop-color:#529BF7" offset="1"></stop>
	</linearGradient>
	<ellipse ry="158.7" rx="160" cy="1333.7" cx="228.4" class="st24"></ellipse>
	<linearGradient y2="3502.7" x2="2418.9578" y1="3502.7" x1="2024.3188" gradientUnits="userSpaceOnUse" id="SVGID_10_">
		<stop style="stop-color:#68B2FC" offset="0"></stop>
		<stop style="stop-color:#529BF7" offset="1"></stop>
	</linearGradient>
	<ellipse ry="195.7" rx="197.3" cy="3502.7" cx="2221.6" class="st25"></ellipse>
</g>
</svg>
